<mxfile host="app.diagrams.net" modified="2020-09-04T08:12:39.406Z" agent="5.0 (Windows NT 10.0; Win64; x64) AppleWebKit/537.36 (KHTML, like Gecko) Chrome/84.0.4147.135 Safari/537.36" etag="hG9p5QNaYMcpWfRD95Ox" version="13.6.5" type="github">
  <diagram id="wO6jwIdA3cEnugFI-wE0" name="Page-1">
    <mxGraphModel dx="1685" dy="1523" grid="1" gridSize="10" guides="1" tooltips="1" connect="1" arrows="1" fold="1" page="1" pageScale="1" pageWidth="850" pageHeight="1100" math="0" shadow="0">
      <root>
        <mxCell id="0" />
        <mxCell id="1" parent="0" />
        <mxCell id="ypOv1iKYByvfWj3q4Mqs-1" value="" style="rounded=0;whiteSpace=wrap;html=1;" vertex="1" parent="1">
          <mxGeometry x="10" y="220" width="120" height="60" as="geometry" />
        </mxCell>
        <mxCell id="ypOv1iKYByvfWj3q4Mqs-16" value="" style="edgeStyle=orthogonalEdgeStyle;rounded=0;orthogonalLoop=1;jettySize=auto;html=1;" edge="1" parent="1" source="ypOv1iKYByvfWj3q4Mqs-2" target="ypOv1iKYByvfWj3q4Mqs-5">
          <mxGeometry relative="1" as="geometry">
            <Array as="points">
              <mxPoint x="510" y="260" />
              <mxPoint x="510" y="310" />
            </Array>
          </mxGeometry>
        </mxCell>
        <mxCell id="ypOv1iKYByvfWj3q4Mqs-18" style="edgeStyle=orthogonalEdgeStyle;rounded=0;orthogonalLoop=1;jettySize=auto;html=1;entryX=0;entryY=0.5;entryDx=0;entryDy=0;" edge="1" parent="1" source="ypOv1iKYByvfWj3q4Mqs-2" target="ypOv1iKYByvfWj3q4Mqs-4">
          <mxGeometry relative="1" as="geometry">
            <Array as="points">
              <mxPoint x="470" y="245" />
              <mxPoint x="470" y="190" />
            </Array>
          </mxGeometry>
        </mxCell>
        <mxCell id="ypOv1iKYByvfWj3q4Mqs-19" style="edgeStyle=orthogonalEdgeStyle;rounded=0;orthogonalLoop=1;jettySize=auto;html=1;entryX=0;entryY=0.65;entryDx=0;entryDy=0;entryPerimeter=0;" edge="1" parent="1" source="ypOv1iKYByvfWj3q4Mqs-2" target="ypOv1iKYByvfWj3q4Mqs-6">
          <mxGeometry relative="1" as="geometry">
            <Array as="points">
              <mxPoint x="470" y="270" />
              <mxPoint x="470" y="439" />
            </Array>
          </mxGeometry>
        </mxCell>
        <mxCell id="ypOv1iKYByvfWj3q4Mqs-20" style="edgeStyle=orthogonalEdgeStyle;rounded=0;orthogonalLoop=1;jettySize=auto;html=1;entryX=0;entryY=0.5;entryDx=0;entryDy=0;" edge="1" parent="1" source="ypOv1iKYByvfWj3q4Mqs-2" target="ypOv1iKYByvfWj3q4Mqs-3">
          <mxGeometry relative="1" as="geometry">
            <Array as="points">
              <mxPoint x="460" y="210" />
              <mxPoint x="460" y="80" />
            </Array>
          </mxGeometry>
        </mxCell>
        <mxCell id="ypOv1iKYByvfWj3q4Mqs-2" value="" style="rounded=1;whiteSpace=wrap;html=1;" vertex="1" parent="1">
          <mxGeometry x="240" y="190" width="180" height="110" as="geometry" />
        </mxCell>
        <mxCell id="ypOv1iKYByvfWj3q4Mqs-21" style="edgeStyle=orthogonalEdgeStyle;rounded=0;orthogonalLoop=1;jettySize=auto;html=1;entryX=0.005;entryY=0.375;entryDx=0;entryDy=0;entryPerimeter=0;" edge="1" parent="1" source="ypOv1iKYByvfWj3q4Mqs-3" target="ypOv1iKYByvfWj3q4Mqs-7">
          <mxGeometry relative="1" as="geometry">
            <Array as="points">
              <mxPoint x="690" y="80" />
              <mxPoint x="690" y="220" />
              <mxPoint x="741" y="220" />
            </Array>
          </mxGeometry>
        </mxCell>
        <mxCell id="ypOv1iKYByvfWj3q4Mqs-3" value="" style="rounded=0;whiteSpace=wrap;html=1;" vertex="1" parent="1">
          <mxGeometry x="520" y="50" width="120" height="60" as="geometry" />
        </mxCell>
        <mxCell id="ypOv1iKYByvfWj3q4Mqs-22" style="edgeStyle=orthogonalEdgeStyle;rounded=0;orthogonalLoop=1;jettySize=auto;html=1;entryX=0;entryY=0.75;entryDx=0;entryDy=0;" edge="1" parent="1" source="ypOv1iKYByvfWj3q4Mqs-4" target="ypOv1iKYByvfWj3q4Mqs-7">
          <mxGeometry relative="1" as="geometry">
            <Array as="points">
              <mxPoint x="680" y="190" />
              <mxPoint x="680" y="240" />
              <mxPoint x="740" y="240" />
            </Array>
          </mxGeometry>
        </mxCell>
        <mxCell id="ypOv1iKYByvfWj3q4Mqs-4" value="" style="rounded=0;whiteSpace=wrap;html=1;" vertex="1" parent="1">
          <mxGeometry x="520" y="160" width="120" height="60" as="geometry" />
        </mxCell>
        <mxCell id="ypOv1iKYByvfWj3q4Mqs-23" value="" style="edgeStyle=orthogonalEdgeStyle;rounded=0;orthogonalLoop=1;jettySize=auto;html=1;" edge="1" parent="1" source="ypOv1iKYByvfWj3q4Mqs-5" target="ypOv1iKYByvfWj3q4Mqs-7">
          <mxGeometry relative="1" as="geometry" />
        </mxCell>
        <mxCell id="ypOv1iKYByvfWj3q4Mqs-5" value="" style="rounded=0;whiteSpace=wrap;html=1;" vertex="1" parent="1">
          <mxGeometry x="520" y="280" width="120" height="60" as="geometry" />
        </mxCell>
        <mxCell id="ypOv1iKYByvfWj3q4Mqs-24" style="edgeStyle=orthogonalEdgeStyle;rounded=0;orthogonalLoop=1;jettySize=auto;html=1;entryX=-0.026;entryY=0.638;entryDx=0;entryDy=0;entryPerimeter=0;" edge="1" parent="1" source="ypOv1iKYByvfWj3q4Mqs-6" target="ypOv1iKYByvfWj3q4Mqs-7">
          <mxGeometry relative="1" as="geometry">
            <Array as="points">
              <mxPoint x="710" y="430" />
              <mxPoint x="710" y="280" />
              <mxPoint x="735" y="280" />
            </Array>
          </mxGeometry>
        </mxCell>
        <mxCell id="ypOv1iKYByvfWj3q4Mqs-6" value="" style="rounded=0;whiteSpace=wrap;html=1;" vertex="1" parent="1">
          <mxGeometry x="520" y="400" width="120" height="60" as="geometry" />
        </mxCell>
        <mxCell id="ypOv1iKYByvfWj3q4Mqs-25" value="" style="edgeStyle=orthogonalEdgeStyle;rounded=0;orthogonalLoop=1;jettySize=auto;html=1;" edge="1" parent="1" source="ypOv1iKYByvfWj3q4Mqs-7" target="ypOv1iKYByvfWj3q4Mqs-8">
          <mxGeometry relative="1" as="geometry" />
        </mxCell>
        <mxCell id="ypOv1iKYByvfWj3q4Mqs-7" value="" style="rounded=0;whiteSpace=wrap;html=1;" vertex="1" parent="1">
          <mxGeometry x="760" y="210" width="190" height="80" as="geometry" />
        </mxCell>
        <mxCell id="ypOv1iKYByvfWj3q4Mqs-27" style="edgeStyle=orthogonalEdgeStyle;rounded=0;orthogonalLoop=1;jettySize=auto;html=1;entryX=0;entryY=0.5;entryDx=0;entryDy=0;" edge="1" parent="1" source="ypOv1iKYByvfWj3q4Mqs-8" target="ypOv1iKYByvfWj3q4Mqs-9">
          <mxGeometry relative="1" as="geometry">
            <Array as="points">
              <mxPoint x="1315" y="220" />
              <mxPoint x="1315" y="120" />
            </Array>
          </mxGeometry>
        </mxCell>
        <mxCell id="ypOv1iKYByvfWj3q4Mqs-28" style="edgeStyle=orthogonalEdgeStyle;rounded=0;orthogonalLoop=1;jettySize=auto;html=1;entryX=0;entryY=0.5;entryDx=0;entryDy=0;" edge="1" parent="1" source="ypOv1iKYByvfWj3q4Mqs-8" target="ypOv1iKYByvfWj3q4Mqs-11">
          <mxGeometry relative="1" as="geometry" />
        </mxCell>
        <mxCell id="ypOv1iKYByvfWj3q4Mqs-29" style="edgeStyle=orthogonalEdgeStyle;rounded=0;orthogonalLoop=1;jettySize=auto;html=1;entryX=0;entryY=0.5;entryDx=0;entryDy=0;" edge="1" parent="1" source="ypOv1iKYByvfWj3q4Mqs-8" target="ypOv1iKYByvfWj3q4Mqs-12">
          <mxGeometry relative="1" as="geometry">
            <Array as="points">
              <mxPoint x="1280" y="270" />
              <mxPoint x="1280" y="510" />
            </Array>
          </mxGeometry>
        </mxCell>
        <mxCell id="ypOv1iKYByvfWj3q4Mqs-54" style="edgeStyle=orthogonalEdgeStyle;rounded=0;orthogonalLoop=1;jettySize=auto;html=1;entryX=0;entryY=0.5;entryDx=0;entryDy=0;fontSize=16;" edge="1" parent="1" source="ypOv1iKYByvfWj3q4Mqs-50" target="ypOv1iKYByvfWj3q4Mqs-10">
          <mxGeometry relative="1" as="geometry">
            <Array as="points">
              <mxPoint x="1360" y="240" />
            </Array>
          </mxGeometry>
        </mxCell>
        <mxCell id="ypOv1iKYByvfWj3q4Mqs-8" value="" style="rounded=0;whiteSpace=wrap;html=1;" vertex="1" parent="1">
          <mxGeometry x="1060" y="210" width="180" height="80" as="geometry" />
        </mxCell>
        <mxCell id="ypOv1iKYByvfWj3q4Mqs-9" value="" style="rounded=0;whiteSpace=wrap;html=1;" vertex="1" parent="1">
          <mxGeometry x="1360" y="90" width="120" height="60" as="geometry" />
        </mxCell>
        <mxCell id="ypOv1iKYByvfWj3q4Mqs-10" value="" style="rounded=0;whiteSpace=wrap;html=1;" vertex="1" parent="1">
          <mxGeometry x="1370" y="220" width="120" height="60" as="geometry" />
        </mxCell>
        <mxCell id="ypOv1iKYByvfWj3q4Mqs-11" value="" style="rounded=0;whiteSpace=wrap;html=1;" vertex="1" parent="1">
          <mxGeometry x="1360" y="360" width="120" height="60" as="geometry" />
        </mxCell>
        <mxCell id="ypOv1iKYByvfWj3q4Mqs-12" value="" style="rounded=0;whiteSpace=wrap;html=1;" vertex="1" parent="1">
          <mxGeometry x="1360" y="480" width="120" height="60" as="geometry" />
        </mxCell>
        <mxCell id="ypOv1iKYByvfWj3q4Mqs-15" value="" style="endArrow=classic;html=1;" edge="1" parent="1">
          <mxGeometry width="50" height="50" relative="1" as="geometry">
            <mxPoint x="130" y="249.5" as="sourcePoint" />
            <mxPoint x="230" y="250" as="targetPoint" />
          </mxGeometry>
        </mxCell>
        <mxCell id="ypOv1iKYByvfWj3q4Mqs-30" value="Student" style="text;html=1;strokeColor=none;fillColor=none;align=center;verticalAlign=middle;whiteSpace=wrap;rounded=0;strokeWidth=2;fontSize=18;" vertex="1" parent="1">
          <mxGeometry y="190" width="140" height="120" as="geometry" />
        </mxCell>
        <mxCell id="ypOv1iKYByvfWj3q4Mqs-31" value="Current Schedule&lt;br style=&quot;font-size: 23px;&quot;&gt;session" style="text;html=1;strokeColor=none;fillColor=none;align=center;verticalAlign=middle;whiteSpace=wrap;rounded=0;fontSize=23;" vertex="1" parent="1">
          <mxGeometry x="240" y="200" width="180" height="90" as="geometry" />
        </mxCell>
        <mxCell id="ypOv1iKYByvfWj3q4Mqs-32" value="CLASS A" style="text;html=1;strokeColor=none;fillColor=none;align=center;verticalAlign=middle;whiteSpace=wrap;rounded=0;fontSize=23;" vertex="1" parent="1">
          <mxGeometry x="540" y="-60" width="80" height="290" as="geometry" />
        </mxCell>
        <mxCell id="ypOv1iKYByvfWj3q4Mqs-34" value="CLASS B" style="text;html=1;strokeColor=none;fillColor=none;align=center;verticalAlign=middle;whiteSpace=wrap;rounded=0;fontSize=23;" vertex="1" parent="1">
          <mxGeometry x="560" y="180" width="40" height="20" as="geometry" />
        </mxCell>
        <mxCell id="ypOv1iKYByvfWj3q4Mqs-35" value="CLASS C" style="text;html=1;strokeColor=none;fillColor=none;align=center;verticalAlign=middle;whiteSpace=wrap;rounded=0;fontSize=23;" vertex="1" parent="1">
          <mxGeometry x="560" y="300" width="40" height="20" as="geometry" />
        </mxCell>
        <mxCell id="ypOv1iKYByvfWj3q4Mqs-36" value="CLASS D" style="text;html=1;strokeColor=none;fillColor=none;align=center;verticalAlign=middle;whiteSpace=wrap;rounded=0;fontSize=23;" vertex="1" parent="1">
          <mxGeometry x="560" y="420" width="40" height="20" as="geometry" />
        </mxCell>
        <mxCell id="ypOv1iKYByvfWj3q4Mqs-37" value="Enrollement" style="text;html=1;strokeColor=none;fillColor=none;align=center;verticalAlign=middle;whiteSpace=wrap;rounded=0;fontSize=23;" vertex="1" parent="1">
          <mxGeometry x="800" y="240" width="110" height="20" as="geometry" />
        </mxCell>
        <mxCell id="ypOv1iKYByvfWj3q4Mqs-39" value="Teacher" style="text;html=1;strokeColor=none;fillColor=none;align=center;verticalAlign=middle;whiteSpace=wrap;rounded=0;fontSize=23;" vertex="1" parent="1">
          <mxGeometry x="1080" y="240" width="140" height="20" as="geometry" />
        </mxCell>
        <mxCell id="ypOv1iKYByvfWj3q4Mqs-40" value="Enrolled Students&amp;nbsp;" style="text;html=1;strokeColor=none;fillColor=none;align=center;verticalAlign=middle;whiteSpace=wrap;rounded=0;fontSize=17;" vertex="1" parent="1">
          <mxGeometry x="1400" y="110" width="40" height="20" as="geometry" />
        </mxCell>
        <mxCell id="ypOv1iKYByvfWj3q4Mqs-41" value="Enrolled Students&amp;nbsp;" style="text;html=1;strokeColor=none;fillColor=none;align=center;verticalAlign=middle;whiteSpace=wrap;rounded=0;fontSize=17;" vertex="1" parent="1">
          <mxGeometry x="1400" y="240" width="40" height="20" as="geometry" />
        </mxCell>
        <mxCell id="ypOv1iKYByvfWj3q4Mqs-42" value="Enrolled Students&amp;nbsp;" style="text;html=1;strokeColor=none;fillColor=none;align=center;verticalAlign=middle;whiteSpace=wrap;rounded=0;fontSize=17;" vertex="1" parent="1">
          <mxGeometry x="1400" y="500" width="40" height="20" as="geometry" />
        </mxCell>
        <mxCell id="ypOv1iKYByvfWj3q4Mqs-43" value="Enrolled Students&amp;nbsp;" style="text;html=1;strokeColor=none;fillColor=none;align=center;verticalAlign=middle;whiteSpace=wrap;rounded=0;fontSize=17;" vertex="1" parent="1">
          <mxGeometry x="1400" y="380" width="40" height="20" as="geometry" />
        </mxCell>
        <mxCell id="ypOv1iKYByvfWj3q4Mqs-44" style="edgeStyle=orthogonalEdgeStyle;rounded=0;orthogonalLoop=1;jettySize=auto;html=1;exitX=0.5;exitY=1;exitDx=0;exitDy=0;fontSize=17;" edge="1" parent="1" source="ypOv1iKYByvfWj3q4Mqs-41" target="ypOv1iKYByvfWj3q4Mqs-41">
          <mxGeometry relative="1" as="geometry" />
        </mxCell>
        <mxCell id="ypOv1iKYByvfWj3q4Mqs-48" value="CLASS D" style="text;html=1;strokeColor=none;fillColor=none;align=center;verticalAlign=middle;whiteSpace=wrap;rounded=0;fontSize=15;" vertex="1" parent="1">
          <mxGeometry x="1290" y="480" width="40" height="20" as="geometry" />
        </mxCell>
        <mxCell id="ypOv1iKYByvfWj3q4Mqs-49" value="CLASS A" style="text;html=1;strokeColor=none;fillColor=none;align=center;verticalAlign=middle;whiteSpace=wrap;rounded=0;fontSize=16;rotation=270;" vertex="1" parent="1">
          <mxGeometry x="1260" y="140" width="80" height="40" as="geometry" />
        </mxCell>
        <mxCell id="ypOv1iKYByvfWj3q4Mqs-51" value="CLASS C" style="text;html=1;strokeColor=none;fillColor=none;align=center;verticalAlign=middle;whiteSpace=wrap;rounded=0;fontSize=16;" vertex="1" parent="1">
          <mxGeometry x="1310" y="360" width="40" height="20" as="geometry" />
        </mxCell>
        <mxCell id="ypOv1iKYByvfWj3q4Mqs-50" value="CLASS B" style="text;html=1;strokeColor=none;fillColor=none;align=center;verticalAlign=middle;whiteSpace=wrap;rounded=0;fontSize=16;" vertex="1" parent="1">
          <mxGeometry x="1320" y="230" width="40" height="35" as="geometry" />
        </mxCell>
        <mxCell id="ypOv1iKYByvfWj3q4Mqs-55" style="edgeStyle=orthogonalEdgeStyle;rounded=0;orthogonalLoop=1;jettySize=auto;html=1;entryX=0;entryY=0.5;entryDx=0;entryDy=0;fontSize=16;" edge="1" parent="1" source="ypOv1iKYByvfWj3q4Mqs-8" target="ypOv1iKYByvfWj3q4Mqs-50">
          <mxGeometry relative="1" as="geometry">
            <mxPoint x="1240" y="240" as="sourcePoint" />
            <mxPoint x="1370" y="250" as="targetPoint" />
            <Array as="points">
              <mxPoint x="1320" y="240" />
            </Array>
          </mxGeometry>
        </mxCell>
        <mxCell id="ypOv1iKYByvfWj3q4Mqs-56" value="Email-id" style="text;html=1;strokeColor=none;fillColor=none;align=center;verticalAlign=middle;whiteSpace=wrap;rounded=0;fontSize=16;" vertex="1" parent="1">
          <mxGeometry x="140" y="220" width="70" height="20" as="geometry" />
        </mxCell>
        <mxCell id="ypOv1iKYByvfWj3q4Mqs-57" value="password" style="text;html=1;strokeColor=none;fillColor=none;align=center;verticalAlign=middle;whiteSpace=wrap;rounded=0;fontSize=16;" vertex="1" parent="1">
          <mxGeometry x="160" y="260" width="40" height="20" as="geometry" />
        </mxCell>
      </root>
    </mxGraphModel>
  </diagram>
</mxfile>
